<?xml version="1.0" standalone="no"?>
<!DOCTYPE svg PUBLIC "-//W3C//DTD SVG 20010904//EN"
 "http://www.w3.org/TR/2001/REC-SVG-20010904/DTD/svg10.dtd">
<svg version="1.0" xmlns="http://www.w3.org/2000/svg"
 width="1048.000000pt" height="1048.000000pt" viewBox="0 0 1048.000000 1048.000000"
 preserveAspectRatio="xMidYMid meet">
<metadata>
Created by potrace 1.14, written by Peter Selinger 2001-2017
</metadata>
<g transform="translate(0.000000,1048.000000) scale(0.100000,-0.100000)"
fill="#000000" stroke="none">
<path d="M2897 10474 c-3 -3 -11 -6 -19 -7 -53 -8 -141 -103 -152 -163 -3 -16
-8 -40 -11 -54 -3 -14 -8 -43 -11 -65 -9 -76 -11 -90 -18 -120 -3 -16 -9 -48
-11 -70 -3 -22 -10 -67 -16 -100 -6 -33 -13 -73 -15 -88 -8 -64 -15 -114 -19
-137 -7 -40 -14 -82 -19 -125 -3 -22 -8 -51 -11 -65 -3 -14 -7 -41 -10 -60 -6
-47 -15 -110 -21 -140 -2 -14 -7 -43 -10 -65 -3 -22 -12 -76 -19 -119 -8 -44
-12 -83 -9 -88 3 -4 1 -8 -3 -8 -5 0 -9 -8 -9 -17 -1 -21 -12 -108 -18 -138
-6 -30 -28 -176 -31 -205 -2 -14 -4 -25 -5 -25 -1 0 -3 -9 -4 -20 -3 -26 -16
-105 -21 -136 -2 -13 -6 -40 -9 -59 -2 -19 -9 -62 -15 -95 -6 -33 -13 -78 -16
-100 -3 -22 -7 -51 -10 -65 -2 -13 -7 -42 -10 -65 -9 -57 -15 -96 -20 -125 -2
-14 -7 -45 -10 -70 -4 -25 -10 -65 -15 -90 -4 -25 -8 -52 -8 -60 0 -8 -3 -28
-6 -45 -12 -59 -18 -100 -21 -130 -2 -16 -6 -43 -10 -60 -3 -16 -8 -46 -11
-65 -2 -19 -9 -60 -14 -90 -5 -30 -11 -71 -14 -90 -13 -88 -18 -119 -26 -170
-12 -74 -21 -129 -25 -165 -3 -16 -7 -41 -10 -55 -5 -29 -11 -66 -20 -130 -3
-25 -8 -58 -11 -75 -3 -16 -7 -41 -9 -55 -9 -60 -16 -108 -25 -155 -5 -27 -12
-70 -15 -95 -5 -44 -11 -78 -21 -130 -3 -14 -7 -41 -9 -60 -2 -19 -6 -48 -9
-65 -2 -16 -8 -50 -11 -75 -4 -25 -9 -54 -11 -65 -5 -23 -15 -89 -19 -125 -2
-14 -4 -25 -5 -25 -1 0 -3 -15 -5 -34 -3 -28 -17 -116 -30 -191 -1 -8 -6 -40
-10 -70 -4 -30 -9 -64 -11 -75 -11 -53 -16 -82 -19 -110 -2 -16 -6 -43 -9 -60
-3 -16 -8 -49 -11 -73 -3 -24 -7 -53 -10 -65 -3 -12 -8 -38 -10 -57 -2 -19 -7
-55 -11 -80 -4 -25 -7 -51 -7 -57 0 -7 -3 -13 -6 -13 -3 0 -6 -15 -7 -33 -1
-31 -9 -95 -20 -147 -2 -14 -6 -38 -8 -55 -3 -16 -11 -75 -20 -130 -9 -55 -18
-116 -20 -135 -3 -19 -5 -35 -6 -35 -2 0 -8 -35 -15 -85 -6 -47 -15 -100 -22
-135 -2 -11 -6 -40 -9 -65 -7 -63 -12 -95 -14 -95 -1 0 -3 -9 -4 -20 -1 -11
-5 -36 -9 -55 -3 -19 -9 -57 -12 -85 -4 -27 -8 -57 -10 -65 -2 -8 -7 -37 -11
-65 -3 -27 -8 -59 -10 -70 -3 -11 -7 -36 -10 -55 -3 -19 -12 -78 -20 -130 -8
-52 -17 -111 -20 -130 -3 -19 -7 -46 -9 -60 -3 -14 -7 -43 -11 -65 -3 -22 -8
-53 -11 -70 -3 -16 -6 -41 -8 -55 -2 -14 -5 -38 -8 -55 -3 -16 -9 -50 -12 -75
-4 -25 -9 -52 -10 -60 -2 -8 -6 -35 -9 -60 -3 -25 -8 -56 -11 -70 -7 -37 -17
-101 -20 -137 -2 -18 -6 -40 -9 -50 -3 -10 -8 -38 -11 -63 -3 -25 -8 -58 -11
-75 -3 -16 -7 -48 -9 -70 -2 -22 -4 -40 -5 -40 -3 0 -6 -20 -45 -265 -5 -34
-4 -36 57 -70 34 -19 67 -37 73 -39 5 -2 12 -7 15 -11 3 -3 21 -14 40 -24 19
-10 62 -33 95 -52 33 -18 74 -41 90 -49 17 -9 46 -25 65 -36 19 -12 64 -37
100 -57 36 -19 70 -38 75 -42 6 -5 36 -22 67 -39 80 -43 102 -55 108 -61 3 -3
25 -16 50 -29 75 -39 157 -84 334 -185 93 -53 170 -96 172 -96 1 0 41 -23 89
-50 48 -28 89 -50 92 -50 3 0 17 -8 31 -18 15 -11 59 -36 97 -57 39 -21 99
-54 135 -75 36 -20 85 -48 110 -62 101 -56 165 -91 212 -119 27 -16 50 -29 52
-29 2 0 41 -22 87 -48 46 -27 109 -62 139 -79 30 -16 73 -40 95 -53 22 -13 74
-41 115 -63 41 -22 80 -43 86 -48 6 -5 37 -23 70 -40 32 -17 67 -38 77 -47 9
-8 17 -12 17 -8 0 4 13 -2 29 -13 16 -12 31 -21 34 -21 2 0 44 -23 93 -51 49
-29 112 -64 139 -79 28 -15 99 -55 159 -89 60 -33 113 -61 117 -61 4 0 9 -4
11 -8 4 -11 135 -68 178 -78 19 -4 42 -9 50 -11 45 -12 210 -11 276 2 74 14
274 100 274 117 0 5 3 7 8 5 4 -2 21 4 37 14 17 11 42 24 58 30 15 6 27 14 27
19 0 4 8 10 18 13 9 4 49 24 87 46 39 21 90 49 115 62 25 12 47 25 50 28 3 3
21 14 40 25 137 72 185 100 188 107 2 5 8 9 14 9 5 0 40 17 76 37 37 21 70 37
75 35 4 -1 7 1 7 6 0 4 17 16 38 27 20 11 87 47 147 81 61 33 135 74 165 91
90 49 105 58 112 68 4 6 8 6 8 1 0 -5 8 -3 18 5 9 8 31 21 47 29 17 8 37 20
45 26 8 7 22 14 30 16 8 2 17 5 20 9 5 5 65 39 170 97 25 13 104 57 175 97
175 97 220 123 285 158 30 17 86 47 123 69 38 21 73 38 78 38 5 0 9 4 9 8 0 4
15 15 32 23 45 21 142 73 148 79 3 3 16 11 30 17 14 7 52 28 85 47 33 19 76
43 95 54 19 10 62 33 95 51 33 19 74 41 90 50 17 9 33 21 37 26 4 6 8 6 8 1 0
-5 6 -4 13 2 11 10 207 122 212 122 3 0 195 107 215 120 8 5 30 17 47 26 31
15 33 19 28 56 -3 22 -7 43 -9 47 -2 3 -7 29 -10 56 -3 28 -8 61 -11 75 -3 14
-8 39 -10 55 -8 58 -16 112 -20 136 -7 42 -27 163 -30 184 -2 11 -8 47 -14 80
-6 33 -13 80 -16 105 -3 25 -7 52 -10 60 -2 8 -6 33 -10 55 -6 44 -12 84 -20
130 -3 17 -8 46 -11 65 -3 19 -12 76 -20 125 -9 50 -17 101 -19 115 -12 88
-20 136 -31 195 -3 17 -7 46 -10 65 -8 53 -12 75 -14 75 -1 0 -3 20 -5 45 -2
25 -7 56 -11 70 -3 14 -7 39 -9 55 -2 17 -4 31 -5 33 -4 4 -6 17 -15 87 -5 39
-9 72 -10 75 -1 3 -4 19 -8 35 -4 17 -9 47 -12 67 -2 21 -7 53 -10 70 -22 135
-36 221 -40 248 -3 23 -39 241 -51 315 -7 35 -13 77 -20 125 -10 69 -12 85
-18 115 -22 126 -45 268 -51 325 -2 14 -4 25 -5 25 -2 0 -9 35 -14 75 -3 19
-5 35 -6 35 -1 0 -3 14 -5 30 -3 33 -11 85 -25 160 -5 28 -12 68 -15 90 -3 22
-7 51 -10 65 -3 14 -7 41 -9 60 -3 19 -7 46 -10 60 -3 14 -8 43 -11 65 -9 62
-14 98 -20 125 -3 14 -7 45 -10 70 -3 25 -8 56 -11 70 -7 28 -8 34 -24 140
-15 99 -19 120 -25 150 -2 13 -7 42 -10 65 -3 22 -14 92 -25 155 -11 63 -21
131 -24 150 -4 33 -51 318 -62 385 -8 41 -11 63 -18 115 -3 25 -9 56 -11 70
-3 14 -8 43 -11 65 -3 22 -7 48 -10 58 -3 11 -8 39 -10 63 -2 25 -5 48 -8 52
-2 4 -7 31 -11 61 -4 30 -9 63 -11 75 -10 42 -13 62 -18 101 -3 22 -7 51 -10
64 -3 12 -8 43 -11 68 -18 158 -170 254 -320 203 -22 -7 -46 -19 -55 -27 -16
-15 -870 -867 -870 -868 0 -1 -89 -89 -197 -198 l-198 -196 -20 32 c-11 17
-20 34 -20 37 0 3 -3 10 -7 15 -7 12 -86 161 -142 270 -22 44 -45 83 -51 87
-5 4 -6 8 -1 8 5 0 3 6 -3 13 -6 8 -36 63 -67 123 -31 60 -77 147 -102 194
-25 47 -75 144 -113 215 -37 72 -82 157 -99 190 -18 33 -71 134 -118 225 -47
91 -89 167 -94 168 -4 2 -8 9 -8 16 0 18 -24 66 -33 66 -5 0 -5 5 -2 10 3 6 1
10 -4 10 -6 0 -11 9 -11 19 0 11 -4 23 -10 26 -5 3 -24 36 -42 73 -73 149
-194 209 -320 161 -91 -35 -81 -21 -295 -429 -57 -109 -150 -285 -180 -340 -7
-14 -13 -31 -13 -37 0 -7 -4 -13 -10 -13 -5 0 -12 -11 -16 -25 -3 -14 -10 -25
-15 -25 -5 0 -9 -9 -9 -19 0 -11 -4 -22 -8 -25 -4 -2 -30 -50 -57 -105 -28
-55 -52 -100 -55 -101 -3 0 -25 37 -49 83 -24 45 -62 116 -84 157 -48 90 -115
215 -154 290 -16 30 -43 80 -60 110 -16 30 -54 100 -83 155 -29 55 -64 120
-78 145 -25 45 -62 115 -141 265 -24 44 -53 98 -65 120 -12 22 -53 99 -90 170
-38 72 -72 135 -76 140 -6 9 -50 91 -150 280 -35 66 -58 108 -168 310 -24 44
-46 88 -49 98 -3 9 -9 17 -14 17 -5 0 -9 8 -9 18 0 10 -4 22 -9 28 -5 5 -23
35 -40 67 -42 76 -57 93 -110 125 -33 19 -61 27 -107 28 -34 2 -64 0 -67 -2z"/>
</g>
</svg>
