<svg xmlns="http://www.w3.org/2000/svg" width="933.333" height="933.333" preserveAspectRatio="xMidYMid meet" version="1.0" viewBox="0 0 700 700"><metadata>Created by potrace 1.14, written by Peter Selinger 2001-2017</metadata><g fill="#000" stroke="none"><path d="M2552 4990 c-355 -80 -615 -376 -650 -739 l-7 -74 -110 -2 c-111 -2 -133 -5 -215 -32 -235 -76 -413 -276 -465 -522 -14 -65 -14 -225 -1 -285 57 -253 254 -456 511 -527 60 -16 115 -22 220 -25 77 -2 145 -3 150 -4 6 0 10 -40 11 -98 3 -321 210 -583 529 -668 67 -18 132 -19 1500 -19 l1430 0 67 23 c265 92 427 365 372 627 -21 98 -27 117 -62 177 -96 166 -258 269 -443 284 -41 3 -76 7 -78 10 -3 3 -6 19 -7 37 -10 201 -128 410 -298 527 -47 32 -166 90 -185 90 -6 0 -38 18 -71 39 -77 50 -172 82 -268 90 -56 4 -76 10 -77 21 -1 8 -5 43 -9 77 -7 65 -18 105 -42 160 -8 17 -14 34 -14 38 0 3 -21 39 -46 78 -103 161 -273 275 -471 314 -59 11 -210 5 -276 -12 -38 -9 -70 -15 -71 -14 -2 2 -20 31 -41 64 -21 33 -68 91 -104 128 -88 91 -164 141 -316 208 -104 45 -327 59 -463 29z" transform="translate(0.000000,700.000000) scale(0.100000,-0.100000)"/></g></svg>