<?xml version="1.0" standalone="no"?>
<!DOCTYPE svg PUBLIC "-//W3C//DTD SVG 20010904//EN"
 "http://www.w3.org/TR/2001/REC-SVG-20010904/DTD/svg10.dtd">
<svg version="1.0" xmlns="http://www.w3.org/2000/svg"
 width="700.000000pt" height="700.000000pt" viewBox="0 0 700.000000 700.000000"
 preserveAspectRatio="xMidYMid meet">
<metadata>
Created by potrace 1.14, written by Peter Selinger 2001-2017
</metadata>
<g transform="translate(0.000000,700.000000) scale(0.100000,-0.100000)"
fill="#000000" stroke="none">
<path d="M3503 6423 c-255 -328 -546 -1256 -754 -2396 -28 -155 -52 -283 -54
-285 -3 -3 -45 85 -45 95 0 7 -176 442 -225 558 -68 159 -273 572 -347 698
-82 140 -268 422 -308 467 l-31 35 5 -35 c42 -268 57 -739 32 -995 -34 -340
-66 -488 -219 -1020 -109 -381 -129 -488 -130 -710 -1 -187 7 -250 55 -425 44
-162 191 -480 295 -636 24 -38 51 -81 59 -95 21 -41 133 -148 197 -190 149
-96 337 -146 817 -214 131 -19 262 -49 437 -99 133 -38 229 -82 282 -128 60
-53 71 -54 130 -14 29 20 57 36 62 36 18 0 416 197 495 245 200 121 377 273
484 417 175 234 274 576 265 918 -6 282 -21 334 -220 790 -96 220 -166 427
-201 595 -36 172 -44 426 -20 590 59 396 255 769 598 1138 101 109 102 111 53
82 -27 -16 -63 -35 -80 -44 -59 -28 -222 -137 -340 -225 -166 -126 -453 -413
-576 -578 -52 -69 -123 -173 -159 -230 -64 -101 -217 -395 -239 -459 -7 -20
-15 -29 -20 -23 -17 17 -111 328 -165 544 -95 377 -134 653 -143 1000 -6 227
5 421 31 563 7 37 12 67 10 67 -1 0 -15 -17 -31 -37z m-160 -1838 c-19 -123
-11 -408 17 -574 31 -189 126 -538 159 -590 6 -9 23 16 60 88 177 348 460 635
791 801 45 23 44 22 -41 -68 -111 -116 -186 -223 -248 -353 -63 -130 -90 -234
-98 -369 -10 -191 34 -360 171 -662 93 -203 106 -255 106 -419 0 -160 -27
-277 -96 -411 -95 -184 -261 -312 -589 -457 -27 -13 -74 -34 -103 -48 l-52
-26 -45 32 c-77 55 -259 104 -525 142 -274 38 -402 84 -492 176 -56 58 -162
232 -213 349 -60 140 -77 222 -77 364 0 144 11 199 102 501 114 379 141 631
106 969 -8 74 -13 136 -12 137 5 6 107 -137 172 -240 88 -140 247 -458 329
-657 38 -91 71 -169 75 -173 4 -5 10 9 14 30 97 555 248 1088 385 1362 40 78
111 195 116 189 1 -2 -4 -43 -12 -93z"/>
<path d="M3188 3680 c-87 -128 -171 -436 -216 -793 -11 -81 -21 -150 -24 -152
-2 -3 -38 48 -78 112 -41 65 -106 160 -146 213 -76 101 -238 278 -247 270 -3
-3 4 -41 15 -85 17 -66 21 -113 22 -270 1 -188 0 -191 -37 -344 -41 -166 -49
-268 -27 -352 28 -105 152 -284 242 -349 50 -37 122 -59 208 -66 l65 -4 -53
15 c-80 23 -108 41 -151 98 -107 142 -115 218 -44 425 l48 137 0 142 c0 129 1
140 16 127 33 -30 129 -173 190 -283 l63 -114 28 113 c52 208 140 431 186 473
16 14 17 8 18 -101 1 -118 22 -213 69 -326 l16 -39 36 54 c71 108 192 213 313
274 l55 28 -63 -66 c-39 -41 -74 -91 -93 -132 -29 -61 -31 -73 -27 -147 4 -74
9 -89 64 -195 48 -96 59 -126 62 -177 5 -82 -24 -161 -83 -219 -37 -37 -139
-97 -210 -122 -17 -6 -15 -9 19 -23 l39 -15 121 63 c151 78 210 117 275 181
88 87 132 198 132 334 0 97 -27 175 -97 280 -118 177 -149 246 -165 364 -22
165 52 348 209 514 20 20 32 37 27 37 -4 0 -51 -29 -104 -64 -187 -126 -317
-270 -408 -453 l-48 -96 -51 108 c-92 194 -133 345 -143 530 -6 117 -6 119
-23 95z"/>
</g>
</svg>
