<?xml version="1.0" standalone="no"?>
<!DOCTYPE svg PUBLIC "-//W3C//DTD SVG 20010904//EN"
 "http://www.w3.org/TR/2001/REC-SVG-20010904/DTD/svg10.dtd">
<svg version="1.0" xmlns="http://www.w3.org/2000/svg"
 width="912.000000pt" height="912.000000pt" viewBox="0 0 912.000000 912.000000"
 preserveAspectRatio="xMidYMid meet">
<metadata>
Created by potrace 1.14, written by Peter Selinger 2001-2017
</metadata>
<g transform="translate(0.000000,912.000000) scale(0.100000,-0.100000)"
fill="#000000" stroke="none">
<path d="M4560 8367 c-22 -30 -40 -57 -40 -61 0 -4 -5 -12 -10 -19 -42 -50
-204 -360 -193 -371 3 -3 1 -6 -5 -6 -7 0 -12 -5 -12 -11 0 -5 -9 -29 -19 -52
-30 -66 -109 -271 -139 -361 -15 -44 -29 -83 -32 -86 -3 -3 -6 -9 -6 -15 -1
-5 -20 -66 -42 -135 -22 -69 -50 -159 -62 -200 -11 -41 -24 -82 -27 -90 -7
-17 -9 -24 -16 -60 -3 -14 -11 -41 -17 -60 -16 -51 -61 -221 -66 -250 -3 -14
-7 -32 -10 -40 -7 -17 -43 -163 -50 -200 -3 -14 -10 -43 -16 -65 -6 -22 -13
-49 -15 -60 -2 -11 -15 -66 -28 -123 -14 -56 -28 -119 -31 -140 -3 -20 -8 -40
-10 -43 -2 -3 -5 -19 -8 -35 -4 -24 -44 -216 -62 -299 -2 -11 -6 -33 -9 -50
-2 -16 -7 -41 -10 -55 -3 -14 -8 -38 -10 -55 -3 -16 -12 -64 -20 -105 -18 -88
-20 -101 -30 -160 -8 -46 -10 -60 -19 -117 -2 -18 -7 -40 -10 -50 -2 -10 -7
-40 -11 -68 -6 -48 -25 -88 -25 -52 0 16 -4 28 -49 129 -12 26 -21 52 -21 58
0 6 -4 18 -10 28 -5 9 -30 71 -56 137 -25 66 -51 131 -57 145 -6 14 -11 27
-12 30 -1 3 -9 23 -19 45 -10 22 -19 47 -21 56 -2 9 -8 25 -13 35 -11 20 -22
46 -66 151 -14 35 -38 89 -52 120 -14 32 -33 74 -42 93 -32 73 -252 518 -285
575 -18 33 -51 92 -72 130 -21 39 -42 72 -47 73 -4 2 -8 8 -8 13 0 5 -19 40
-41 77 -23 37 -47 76 -53 87 -20 34 -89 140 -95 145 -3 3 -12 17 -20 33 -8 15
-18 27 -23 27 -4 0 -8 6 -8 13 0 8 -9 22 -20 32 -11 10 -20 22 -20 27 0 5 -6
15 -12 23 -7 7 -33 40 -57 74 -40 56 -67 79 -56 49 3 -7 7 -31 9 -53 3 -22 7
-51 10 -65 3 -14 7 -56 10 -95 3 -38 8 -88 10 -110 20 -149 27 -310 26 -590
-1 -271 -3 -335 -10 -335 -3 0 -5 -21 -6 -48 0 -47 -10 -159 -19 -217 -2 -16
-6 -48 -9 -70 -3 -22 -8 -51 -11 -65 -2 -13 -7 -42 -10 -65 -3 -22 -8 -47 -10
-55 -2 -8 -6 -33 -10 -55 -3 -22 -14 -78 -25 -125 -11 -47 -22 -96 -24 -110
-3 -14 -10 -41 -16 -60 -6 -19 -13 -46 -16 -60 -3 -14 -9 -41 -14 -60 -5 -19
-10 -39 -11 -45 -1 -5 -6 -21 -11 -35 -5 -14 -11 -32 -13 -40 -2 -8 -16 -55
-30 -105 -14 -49 -28 -98 -30 -107 -2 -9 -9 -26 -15 -37 -6 -12 -9 -21 -6 -21
2 0 -5 -28 -15 -62 -11 -35 -22 -70 -24 -78 -2 -8 -20 -73 -39 -145 -31 -115
-64 -263 -81 -363 -23 -137 -28 -441 -9 -562 10 -71 37 -205 48 -245 2 -5 6
-23 11 -40 57 -224 215 -566 392 -850 7 -11 16 -28 19 -37 3 -10 10 -18 15
-18 5 0 14 -12 20 -26 25 -68 153 -202 259 -274 131 -87 354 -170 555 -205 17
-3 37 -8 45 -10 14 -4 63 -11 129 -20 17 -2 38 -6 48 -9 10 -2 41 -8 68 -11
126 -17 187 -25 215 -30 14 -3 41 -7 60 -9 35 -5 98 -15 130 -21 10 -2 67 -15
126 -30 60 -15 116 -28 124 -30 29 -6 206 -56 270 -77 83 -26 194 -81 224
-110 69 -67 122 -100 134 -82 8 12 124 84 135 84 4 0 37 14 72 30 35 17 69 30
75 30 5 0 10 5 10 10 0 6 3 9 8 8 7 -3 362 171 437 214 22 13 42 26 43 31 2 4
8 7 13 7 19 0 233 146 322 220 126 104 280 267 321 339 5 9 12 18 16 21 20 15
120 207 170 325 31 73 90 273 105 355 3 14 7 36 10 50 3 14 7 41 9 60 10 93
19 156 23 163 2 4 -1 7 -7 7 -7 0 -8 6 -2 18 13 25 4 364 -12 438 -2 12 -7 45
-11 74 -4 29 -11 64 -16 77 -5 13 -6 23 -4 23 11 0 -89 252 -156 395 -12 28
-23 52 -24 55 0 3 -8 21 -17 40 -45 96 -106 240 -102 240 3 0 -3 15 -14 33
-12 17 -21 35 -22 39 -1 12 -11 40 -22 68 -5 14 -23 66 -40 115 -16 50 -33 99
-38 110 -17 41 -75 292 -86 371 -3 27 -8 58 -10 69 -23 113 -23 480 0 590 2
11 7 40 10 65 8 59 10 70 36 170 12 47 24 92 26 100 13 52 66 192 104 275 73
159 192 375 212 383 4 2 8 10 8 18 0 8 5 14 10 14 6 0 10 7 10 15 0 8 5 15 10
15 6 0 10 6 10 13 0 7 8 22 18 33 10 10 31 37 47 59 17 22 32 42 35 45 3 3 19
23 35 45 47 64 103 130 168 197 9 10 17 20 17 22 0 2 37 41 83 86 l82 83 -75
-39 c-41 -21 -76 -42 -78 -46 -2 -5 -10 -8 -18 -8 -8 0 -27 -8 -42 -19 -15
-10 -65 -42 -112 -71 -47 -30 -86 -57 -88 -62 -2 -4 -8 -8 -13 -8 -10 0 -46
-24 -100 -65 -15 -11 -39 -29 -54 -40 -227 -163 -588 -511 -714 -688 -8 -12
-22 -28 -30 -38 -48 -51 -251 -343 -251 -359 0 -5 -6 -15 -12 -22 -12 -13 -25
-33 -52 -83 -6 -11 -13 -22 -16 -25 -15 -15 -180 -344 -180 -359 0 -6 -4 -11
-9 -11 -5 0 -12 -12 -17 -27 -10 -37 -9 -34 -24 -68 -7 -16 -12 -34 -11 -38 1
-5 -4 -7 -11 -5 -7 3 -14 10 -14 16 -1 7 -2 13 -4 15 -1 1 -3 9 -5 17 -2 8
-16 49 -31 90 -28 80 -96 300 -120 390 -18 64 -70 273 -78 310 -3 14 -10 45
-16 70 -13 55 -19 83 -24 113 -3 12 -7 32 -10 43 -2 12 -7 37 -10 55 -3 19 -8
45 -10 59 -10 55 -25 147 -31 185 -3 23 -8 52 -10 65 -3 14 -7 48 -10 75 -2
28 -7 70 -10 95 -34 282 -39 755 -10 960 2 19 7 59 10 90 3 30 7 62 10 70 2 8
6 33 10 55 3 22 8 48 11 58 9 29 -4 19 -46 -36z"/>
</g>
</svg>
