<svg xmlns="http://www.w3.org/2000/svg" width="125.5" height="20" fill="none" viewBox="0 0 125.5 20"><style type="text/css">.st0{fill:#2c2c32}.st1{fill-rule:evenodd;clip-rule:evenodd;fill:#fff;filter:url(#Adobe_OpacityMaskFilter)}.st2{mask:url(#mask0_1_)}.st3{fill:#0065a9}.st4{fill:#007acc}.st5{fill:#1f9cf0}.st6{opacity:.25}.st7{fill-rule:evenodd;clip-rule:evenodd;fill:url(#SVGID_1_)}.st8{fill:#fff}</style><path d="M0,5c0-2.8,2.2-5,5-5h19v20H5c-2.8,0-5-2.2-5-5V5z" class="st0"/><defs><filter id="Adobe_OpacityMaskFilter" width="12" height="11.9" x="6" y="4" filterUnits="userSpaceOnUse"><feColorMatrix type="matrix" values="1 0 0 0 0 0 1 0 0 0 0 0 1 0 0 0 0 0 1 0"/></filter></defs><mask id="mask0_1_" width="12" height="11.9" x="6" y="4" maskUnits="userSpaceOnUse"><path d="M14.5,15.9c0.2,0.1,0.4,0.1,0.6,0l2.5-1.2c0.3-0.1,0.4-0.4,0.4-0.7V6c0-0.3-0.2-0.6-0.4-0.7l-2.5-1.2 C14.9,4,14.6,4,14.3,4.2c0,0-0.1,0-0.1,0.1L9.5,8.6L7.5,7C7.3,6.9,7,6.9,6.8,7L6.2,7.6c-0.2,0.2-0.2,0.5,0,0.7L7.9,10l-1.8,1.6 c-0.2,0.2-0.2,0.5,0,0.7L6.8,13c0.2,0.2,0.4,0.2,0.6,0l2.1-1.6l4.7,4.3C14.3,15.8,14.4,15.9,14.5,15.9z M15,7.3L11.4,10l3.6,2.7 V7.3z" class="st1"/></mask><g class="st2"><path d="M17.6,5.3l-2.5-1.2C14.8,4,14.5,4,14.2,4.3l-8.1,7.4c-0.2,0.2-0.2,0.5,0,0.7L6.8,13c0.2,0.2,0.4,0.2,0.6,0 l9.7-7.4C17.5,5.4,18,5.6,18,6v0C18,5.7,17.8,5.4,17.6,5.3z" class="st3"/><g><path d="M17.6,14.7l-2.5,1.2c-0.3,0.1-0.6,0.1-0.9-0.1L6.2,8.4c-0.2-0.2-0.2-0.5,0-0.7L6.8,7C7,6.9,7.3,6.9,7.5,7 l9.7,7.4c0.3,0.2,0.8,0,0.8-0.4v0C18,14.3,17.8,14.6,17.6,14.7z" class="st4"/></g><g><path d="M15.1,15.9c-0.3,0.1-0.6,0.1-0.9-0.1c0.3,0.3,0.8,0.1,0.8-0.3V4.6c0-0.4-0.5-0.6-0.8-0.3 C14.5,4,14.8,4,15.1,4.1l2.5,1.2C17.8,5.4,18,5.7,18,6V14c0,0.3-0.2,0.6-0.4,0.7L15.1,15.9z" class="st5"/></g><g class="st6"><linearGradient id="SVGID_1_" x1="11.993" x2="11.993" y1="17.969" y2="6.031" gradientTransform="matrix(1 0 0 -1 0 22)" gradientUnits="userSpaceOnUse"><stop offset="0" style="stop-color:#fff"/><stop offset="1" style="stop-color:#fff;stop-opacity:0"/></linearGradient><path d="M14.5,15.9c0.2,0.1,0.4,0.1,0.6,0l2.5-1.2c0.3-0.1,0.4-0.4,0.4-0.7V6c0-0.3-0.2-0.6-0.4-0.7l-2.5-1.2 C14.8,4,14.6,4,14.3,4.2c0,0-0.1,0-0.1,0.1L9.5,8.6L7.5,7C7.3,6.9,7,6.9,6.8,7L6.2,7.6c-0.2,0.2-0.2,0.5,0,0.7L7.9,10l-1.8,1.6 c-0.2,0.2-0.2,0.5,0,0.7L6.8,13c0.2,0.2,0.4,0.2,0.6,0l2.1-1.6l4.7,4.3C14.3,15.8,14.4,15.9,14.5,15.9z M15,7.3L11.4,10l3.6,2.7 V7.3z" class="st7"/></g></g><path d="M24,0h98.5c1.7,0,3,2.2,3,5v10c0,2.8-1.4,5-3,5H24V0z" class="st4"/><path d="M33.9,4.8c-2.4,0-3.9,1.7-3.9,4.4c0,2.7,1.5,4.4,3.9,4.4c2.4,0,3.9-1.7,3.9-4.4C37.9,6.5,36.4,4.8,33.9,4.8z M33.9,6c1.6,0,2.6,1.3,2.6,3.3c0,2-1,3.3-2.6,3.3c-1.6,0-2.6-1.3-2.6-3.3C31.3,7.2,32.3,6,33.9,6z" class="st8"/><path d="M42.8,7c-0.9,0-1.6,0.4-2,1.2h-0.1V7.1h-1.2v8.5h1.3v-3.1h0.1c0.3,0.7,1.1,1.1,2,1.1c1.6,0,2.6-1.3,2.6-3.3	C45.5,8.3,44.5,7,42.8,7z M42.5,12.5c-1.1,0-1.7-0.8-1.7-2.2c0-1.4,0.7-2.2,1.7-2.2c1.1,0,1.7,0.8,1.7,2.2	C44.2,11.7,43.6,12.5,42.5,12.5z" class="st8"/><path d="M51.2,11.8c-0.2,0.5-0.8,0.8-1.5,0.8c-1,0-1.7-0.7-1.7-1.9v-0.1h4.5v-0.4c0-2-1.1-3.2-2.8-3.2	c-1.8,0-2.9,1.3-2.9,3.3c0,2,1.1,3.3,2.9,3.3c1.5,0,2.5-0.7,2.8-1.8H51.2z M49.6,8c0.9,0,1.5,0.7,1.6,1.7H48C48,8.7,48.7,8,49.6,8z" class="st8"/><path d="M54,13.5h1.3V9.8c0-1,0.6-1.7,1.5-1.7c0.9,0,1.4,0.5,1.4,1.6v3.8h1.3V9.4c0-1.5-0.8-2.4-2.2-2.4	c-1,0-1.6,0.4-1.9,1.1h-0.1v-1H54V13.5z" class="st8"/><path d="M65.1,6c0.4,0,0.8-0.4,0.8-0.8c0-0.4-0.4-0.8-0.8-0.8c-0.4,0-0.8,0.4-0.8,0.8C64.3,5.6,64.7,6,65.1,6z M64.5,13.5h1.3V7.1h-1.3V13.5z" class="st8"/><path d="M67.6,13.5h1.3V9.8c0-1,0.6-1.7,1.5-1.7c0.9,0,1.4,0.5,1.4,1.6v3.8H73V9.4C73,7.8,72.2,7,70.8,7	c-1,0-1.6,0.4-1.9,1.1h-0.1v-1h-1.2V13.5z" class="st8"/><path d="M82,13.5L85,5h-1.4l-2.3,6.9h-0.1L79,5h-1.4l3,8.5H82z" class="st8"/><path d="M85.2,11.2c0.1,1.5,1.4,2.5,3.2,2.5c2,0,3.3-1,3.3-2.6c0-1.3-0.7-2-2.4-2.4l-0.9-0.2c-1.1-0.3-1.5-0.6-1.5-1.2	c0-0.8,0.7-1.3,1.7-1.3c1,0,1.7,0.5,1.8,1.3h1.3c-0.1-1.4-1.3-2.4-3-2.4c-1.8,0-3.1,1-3.1,2.5c0,1.2,0.7,2,2.2,2.3l1.1,0.3	c1.1,0.3,1.6,0.7,1.6,1.3c0,0.8-0.8,1.3-1.8,1.3c-1.1,0-1.9-0.5-2-1.3H85.2z" class="st8"/><path d="M95.8,13.7c1.9,0,3.3-1.1,3.5-2.7H98c-0.2,1-1.1,1.6-2.2,1.6c-1.5,0-2.5-1.3-2.5-3.3c0-2,0.9-3.3,2.5-3.3	c1.1,0,2,0.7,2.2,1.7h1.3c-0.2-1.7-1.7-2.9-3.5-2.9c-2.3,0-3.8,1.7-3.8,4.4C92,12,93.5,13.7,95.8,13.7z" class="st8"/><path d="M103.6,13.6c1.9,0,3-1.2,3-3.3c0-2.1-1.1-3.3-3-3.3c-1.9,0-3,1.3-3,3.3C100.6,12.4,101.7,13.6,103.6,13.6z M103.6,12.5c-1.1,0-1.7-0.8-1.7-2.2c0-1.4,0.6-2.2,1.7-2.2c1.1,0,1.7,0.8,1.7,2.2C105.3,11.7,104.7,12.5,103.6,12.5z" class="st8"/><path d="M110.5,13.6c0.9,0,1.6-0.4,2-1.1h0.1v1h1.2V4.6h-1.3v3.5h-0.1c-0.3-0.7-1.1-1.1-2-1.1c-1.6,0-2.6,1.3-2.6,3.3	C107.8,12.3,108.8,13.6,110.5,13.6z M110.8,8.1c1.1,0,1.7,0.9,1.7,2.2c0,1.4-0.7,2.2-1.7,2.2c-1.1,0-1.7-0.8-1.7-2.2	C109.1,8.9,109.8,8.1,110.8,8.1z" class="st8"/><path d="M119.9,11.8c-0.2,0.5-0.8,0.8-1.5,0.8c-1,0-1.7-0.7-1.7-1.9v-0.1h4.5v-0.4c0-2-1.1-3.2-2.8-3.2	c-1.8,0-2.9,1.3-2.9,3.3c0,2,1.1,3.3,2.9,3.3c1.5,0,2.5-0.7,2.8-1.8H119.9z M118.3,8c0.9,0,1.5,0.7,1.6,1.7h-3.2	C116.7,8.7,117.4,8,118.3,8z" class="st8"/></svg>